# xmcd
#
# Track frame offsets: 
#        150
#        14550
#        27220
#        36192
#        50954
#        62575
#        74486
#        87861
#        102260
#        116920
#        126195
#        141183
#        154214
#        165580
#        180114
#        195707
#        211563
#
# Disc length: 3027 seconds
#
# Revision: 0
# Processed by: cddbd v1.5.2PL0 Copyright (c) Steve Scherf et al.
# Submitted via: ExactAudioCopy v0.99pb5
#
DISCID=ed0bd111
DTITLE=Paul Robeson - Ol' Man River [CD2]
DYEAR=2006
DGENRE=
TTITLE0=Climbing Up (The Mountain Song)
TTITLE1=I Still Suits Me - with Elizabeth Welch
TTITLE2=Joshua Fit De Battle Of Jericho
TTITLE3=Lonely Road
TTITLE4=Ol' Man River
TTITLE5=Song Of Freedom
TTITLE6=Canoe Song
TTITLE7=Shenandoah
TTITLE8=Little Man You've Had A Busy Day
TTITLE9=Fat Lil'fella With His Mammy's Eyes
TTITLE10=Lazy Bones
TTITLE11=Round The Bend Of The Road
TTITLE12=Water Boy
TTITLE13=Ma Lindy Lou
TTITLE14=River Stay 'Way From My Door
TTITLE15=Rockin' Chair
TTITLE16=My Old Kentucky Home
EXTD=
EXTT0=
EXTT1=
EXTT2=
EXTT3=
EXTT4=
EXTT5=
EXTT6=
EXTT7=
EXTT8=
EXTT9=
EXTT10=
EXTT11=
EXTT12=
EXTT13=
EXTT14=
EXTT15=
EXTT16=
PLAYORDER=
